HIERARCHY
ROOT pelvis
{
  OFFSET 0 100 0
  CHANNELS 6 Xposition Yposition Zposition Zrotation Xrotation Yrotation
  JOINT pelvis_right_femur
  {
    OFFSET -10.78128 -3.44521 -0.5502486
    CHANNELS 3 Zrotation Xrotation Yrotation
    JOINT right_femur_tibia
    {
      OFFSET -0.8047443 -44.0398 -0.1307829
      CHANNELS 3 Zrotation Xrotation Yrotation
      JOINT right_tibia_foot
      {
        OFFSET 3.006224 -47.83518 -5
        CHANNELS 3 Zrotation Xrotation Yrotation
        End Site
        {
          OFFSET 0 -5 15
        }
      }
    }
  }
  JOINT pelvis_left_femur
  {
    OFFSET 10.78128 -3.44521 -0.5502486
    CHANNELS 3 Zrotation Xrotation Yrotation
    JOINT left_femur_tibia
    {
      OFFSET 0.8047443 -44.0398 -0.1307829
      CHANNELS 3 Zrotation Xrotation Yrotation
      JOINT left_tibia_foot
      {
        OFFSET -4.370144 -48.10324 -4.275266
        CHANNELS 3 Zrotation Xrotation Yrotation
        End Site
        {
          OFFSET 0 -5 15
        }
      }
    }
  }
  JOINT pelvis_spine1
  {
    OFFSET 0 6.468898 -3.129235
    CHANNELS 3 Zrotation Xrotation Yrotation
    JOINT spine1
    {
      OFFSET 0 23.15396 4.99043
      CHANNELS 3 Zrotation Xrotation Yrotation
      JOINT spine2
      {
        OFFSET 0 20.79997 -5.064912
        CHANNELS 3 Zrotation Xrotation Yrotation
        JOINT neck
        {
          OFFSET 0 14.38658 9.616178
          CHANNELS 3 Zrotation Xrotation Yrotation
          End Site
          {
            OFFSET 0 20 0
          }
        }
      }
      JOINT right_manubrium
      {
        OFFSET -5.722621 16.35077 3.967754
        CHANNELS 3 Zrotation Xrotation Yrotation
        JOINT right_clavicle
        {
          OFFSET -13.16364 1.694482 -4.693211
          CHANNELS 3 Zrotation Xrotation Yrotation
          JOINT right_humerus
          {
            OFFSET -28.5034 -0.3100689 -2.792744
            CHANNELS 3 Zrotation Xrotation Yrotation
            JOINT right_radius
            {
              OFFSET -25.15693 0.02248979 -1.271978
              CHANNELS 3 Zrotation Xrotation Yrotation
              End Site
              {
                OFFSET -15 0 0
              }
            }
          }
        }
      }
      JOINT left_manubrium
      {
        OFFSET 5.722621 16.35077 3.967754
        CHANNELS 3 Zrotation Xrotation Yrotation
        JOINT left_clavicle
        {
          OFFSET 13.16364 1.694482 -4.693211
          CHANNELS 3 Zrotation Xrotation Yrotation
          JOINT left_humerus
          {
            OFFSET 29.39168 -1.063119 -2.237045
            CHANNELS 3 Zrotation Xrotation Yrotation
            JOINT left_radius
            {
              OFFSET 24.59957 -0.9528479 0.9047498
              CHANNELS 3 Zrotation Xrotation Yrotation
              End Site
              {
                OFFSET 15 -0 -0
              }
            }
          }
        }
      }
    }
  }
}
MOTION
Frames: 21
Frame Time: 0.0416666666667
0 103.5113 0 1.053438 -1.060518 -0.07761998 3.136708 -16.56944 8.430674 -0 35.72603 -0 -4.786036 -15.77493 -3.756032 -6.832354 11.65608 -23.11961 -0 4.999185 -0 4.674725 -18.96591 24.92171 -1.952705 -4.039691 6.638192 1.664632 11.71279 -7.923138 1.529189 21.522 5.530542 2.921518 -23.10327 8.135979 4.889402 -21.34343 12.04534 84.55211 32.53439 -17.46658 -0 0 19.15809 -12.21738 10.0157 3.106627 8.307715 -22.33739 0.3325558 -94.34558 20.17847 23.0913 0 0 -9.505953 15.5728 18.98238 -7.13315
0.2707002 103.4194 1.552405 -0.1022626 -0.7486925 -0.2505996 4.651517 -20.05279 8.86187 -0 36.78953 -0 -5.849279 -14.16799 -4.381094 -5.923079 11.61096 -22.47588 -0 6.077273 -0 2.797466 -20.60121 23.92952 -1.935112 -3.49513 6.269252 1.907294 11.55046 -7.859842 1.474937 21.46909 5.860466 3.037784 -23.71442 8.400808 4.980518 -20.77758 12.06798 85.01904 32.96193 -17.75711 -0 0 17.9133 -11.61986 9.855476 3.350358 7.902714 -22.17754 0.05466269 -93.89497 20.23086 22.31742 0 0 -10.68965 15.34565 17.92246 -6.499735
0.5462645 103.1451 3.371301 -0.4455789 0.7762075 -0.2993465 5.600848 -24.62157 8.777748 -0 32.67563 -0 -6.063911 -12.83339 -4.283299 -5.865601 11.92273 -21.76779 -0 5.449971 -0 3.810944 -22.04658 23.66035 -1.949811 -3.088664 6.029359 2.011948 11.38957 -7.761958 1.398485 21.40577 6.139813 3.166314 -24.03602 8.537725 5.088681 -20.33036 12.04817 85.31934 33.43701 -17.93051 -0 0 16.9983 -11.36532 9.825738 3.787048 7.568672 -22.00934 -0.2080145 -93.56195 20.56066 21.90276 0 0 -11.77051 14.66081 16.96114 -5.292752
0.8089473 102.6745 5.480058 -0.5997588 1.667634 -0.2426006 5.974186 -27.56822 8.241667 -0 29.19651 -0 -6.280377 -11.53408 -4.0272 -5.838357 12.3818 -21.02319 -0 5.202281 -0 4.287229 -22.93635 23.04885 -1.960323 -2.7675 5.852935 2.075455 11.27815 -7.692013 1.31764 21.35741 6.354833 3.26861 -24.2253 8.601359 5.118299 -20.00901 12.05332 85.56256 33.74059 -18.02854 -0 0 16.32815 -11.38776 9.852445 4.216384 7.319962 -21.88918 -0.4206928 -93.24573 20.74086 21.55709 0 0 -12.55682 14.11339 16.14374 -4.408062
1.060463 102.032 7.967432 -0.6983184 2.742208 -0.04263024 6.345191 -30.53806 7.74475 -0 25.04346 -0 -6.315935 -10.01297 -3.605334 -5.886424 12.94121 -20.29404 -0 5.132405 -0 4.932378 -23.62923 22.38397 -1.973242 -2.502184 5.717643 2.106332 11.18338 -7.628684 1.239533 21.31201 6.532327 3.360725 -24.32655 8.622463 5.147382 -19.73584 12.05337 85.76211 34.00835 -18.11258 -0 0 15.77988 -11.49879 9.913743 4.648296 7.105917 -21.77989 -0.6161922 -92.97506 20.95219 21.30656 0 0 -13.23679 13.5201 15.41844 -3.4871
1.298129 101.2535 10.88954 -0.8332066 3.592014 0.3018067 6.650281 -32.90092 7.18211 -0 21.38148 -0 -6.394973 -8.299261 -3.108948 -5.870589 13.54766 -19.49722 -0 5.667624 -0 5.217074 -23.92067 21.44935 -1.983466 -2.277585 5.604833 2.126777 11.10513 -7.580063 1.167511 21.27067 6.679402 3.439278 -24.38521 8.622306 5.164119 -19.50304 12.0561 85.93857 34.21952 -18.1929 -0 0 15.31856 -11.65572 9.987844 5.046629 6.925753 -21.68874 -0.7898639 -92.72616 21.13097 21.08602 0 0 -13.81882 12.98092 14.77881 -2.669746
1.520268 100.4138 14.33536 -1.086989 4.313947 0.8027789 7.056205 -34.80986 6.66709 -0 18.22435 -0 -6.567502 -6.367526 -2.537607 -5.739319 14.15915 -18.61454 -0 7.063586 -0 5.047815 -23.74535 20.15957 -1.991425 -2.082545 5.505087 2.143229 11.03458 -7.542728 1.102062 21.22996 6.804487 3.507544 -24.41924 8.610453 5.181728 -19.2915 12.05702 86.09987 34.40347 -18.28371 -0 0 14.90794 -11.81549 10.06812 5.414887 6.766318 -21.60715 -0.949786 -92.49671 21.30484 20.88993 0 0 -14.35118 12.46823 14.20401 -1.895835
1.72465 99.60729 18.38131 -1.494525 4.802135 1.442472 7.578626 -35.98148 6.214125 -0 15.94392 -0 -6.888634 -4.391387 -1.952464 -5.429418 14.69057 -17.59973 -0 9.62027 -0 4.179047 -22.93754 18.41137 -1.99654 -1.910616 5.412683 2.160696 10.96991 -7.516803 1.042945 21.18953 6.912235 3.566376 -24.44103 8.592971 5.198494 -19.09643 12.05734 86.25199 34.56195 -18.38667 -0 0 14.5335 -11.96735 10.14955 5.750473 6.624815 -21.53518 -1.097108 -92.27926 21.46441 20.70289 0 0 -14.8458 11.99535 13.68442 -1.182319
1.910057 98.96638 23.09132 -2.075664 5.025182 2.17107 8.26226 -36.13077 5.890239 -0 14.76583 -0 -7.368967 -2.644191 -1.423721 -4.887933 14.99372 -16.42554 -0 13.72318 -0 2.41921 -21.27267 16.15765 -1.999078 -1.757065 5.324668 2.18069 10.90899 -7.500741 0.9894359 21.14878 7.006048 3.617229 -24.45555 8.572162 5.216162 -18.91262 12.05672 86.39796 34.70243 -18.50308 -0 0 14.18389 -12.10528 10.23076 6.057795 6.496855 -21.47047 -1.234813 -92.07104 21.61433 20.52188 0 0 -15.31514 11.55426 13.21021 -0.5144178
2.079458 98.64847 28.46652 -2.776909 4.93771 2.880309 9.054642 -34.84735 5.742641 -0 14.85055 -0 -7.950704 -1.602654 -1.088837 -4.109592 14.81158 -15.09351 -0 19.69036 -0 -0.2554709 -18.53659 13.54669 -1.999293 -1.618799 5.239725 2.203575 10.85137 -7.493346 0.9407924 21.10795 7.088121 3.661098 -24.46514 8.549052 5.233958 -18.73824 12.05561 86.53934 34.82682 -18.63101 -0 0 13.85404 -12.23064 10.31104 6.34024 6.380342 -21.41229 -1.364337 -91.86975 21.75359 20.34413 0 0 -15.7627 11.14294 12.77496 0.1102864
2.244176 98.80532 34.39277 -3.444868 4.516802 3.400748 9.771549 -31.77265 5.756409 -0 16.04648 -0 -8.529966 -1.825798 -1.105331 -3.192106 13.75089 -13.65876 -0 27.63612 -0 -3.498241 -14.69357 10.99559 -1.997587 -1.493527 5.157486 2.228839 10.79685 -7.493183 0.896306 21.06739 7.159915 3.698888 -24.4701 8.523603 5.251649 -18.57194 12.05428 86.67662 34.93712 -18.76808 -0 0 13.54084 -12.3464 10.39044 6.602019 6.273192 -21.35958 -1.487152 -91.67454 21.88337 20.16985 0 0 -16.19015 10.75604 12.37342 0.6988552
2.427978 99.50119 40.60273 -3.793263 3.725701 3.542886 10.05078 -26.93177 5.762153 -0 17.59294 -0 -9.022794 -3.589484 -1.517356 -2.415589 11.36143 -12.25256 -0 37.10005 -0 -6.393305 -10.25581 9.140084 -1.994386 -1.379578 5.078161 2.255605 10.74569 -7.498872 0.8553764 21.02769 7.222411 3.731338 -24.46989 8.495412 5.268684 -18.41325 12.05303 86.80954 35.03404 -18.91113 -0 0 13.24313 -12.45682 10.46912 6.846764 6.173918 -21.31161 -1.60425 -91.48517 22.00404 19.99979 0 0 -16.59669 10.38942 12.00176 1.255939
2.662785 100.6298 46.74507 -3.497415 2.465058 3.218199 9.51286 -21.03029 5.44395 -0 18.14769 -0 -9.413259 -6.280938 -2.051085 -2.184359 7.387441 -11.05254 -0 46.87947 -0 -7.723632 -6.416956 8.461231 -1.990129 -1.275631 5.002229 2.282856 10.69821 -7.509061 0.8175089 20.9895 7.276277 3.759075 -24.46354 8.463879 5.284716 -18.26194 12.05214 86.93747 35.11801 -19.05693 -0 0 12.96054 -12.5661 10.54732 7.077787 6.081173 -21.26764 -1.716468 -91.30189 22.11631 19.83532 0 0 -16.98078 10.03881 11.65692 1.786438
2.961651 101.954 52.57826 -2.46339 0.6792679 2.574294 8.120266 -15.03709 4.618607 -0 16.74424 -0 -9.558899 -8.446317 -2.195273 -2.659295 2.010812 -10.14904 -0 55.32522 -0 -7.057468 -4.342346 8.978288 -1.985239 -1.180603 4.930261 2.309606 10.65477 -7.522495 0.7823119 20.95347 7.322009 3.782631 -24.45003 8.428424 5.299475 -18.11793 12.05183 87.05947 35.18923 -19.2023 -0 0 12.69321 -12.67803 10.62521 7.297852 5.99382 -21.22699 -1.824432 -91.12518 22.22077 19.67785 0 0 -17.34051 9.700582 11.33655 2.294365
3.278097 103.2616 58.09227 -1.036175 -1.323829 1.91974 6.401377 -9.193674 3.653415 -0 13.95128 -0 -9.06753 -9.264642 -1.781069 -3.309996 -4.304988 -9.32157 -0 60.71388 -0 -5.631976 -4.037455 10.42511 -1.980103 -1.093555 4.862784 2.335004 10.61568 -7.538049 0.7494818 20.92019 7.360014 3.80246 -24.42851 8.388577 5.312842 -17.98118 12.05228 87.17459 35.24782 -19.34435 -0 0 12.44136 -12.79566 10.70287 7.509226 5.910839 -21.18906 -1.928644 -90.9556 22.31804 19.52862 0 0 -17.67418 9.371646 11.03871 2.783253
3.532162 104.3615 63.39611 0.1946027 -2.975569 1.41332 5.120681 -3.297931 3.165909 -0 11.19729 -0 -7.842067 -9.551652 -1.261531 -3.185467 -10.96816 -8.09903 -0 61.17906 -0 -4.927356 -4.54735 12.47809 -1.97506 -1.013647 4.800202 2.358396 10.58113 -7.554753 0.7187873 20.89016 7.390677 3.818952 -24.39842 8.344039 5.324803 -17.85158 12.0536 87.28186 35.29398 -19.48057 -0 0 12.20517 -12.92117 10.78026 7.713699 5.831342 -21.15327 -2.029497 -90.79361 22.40869 19.38853 0 0 -17.98059 9.04953 10.76176 3.255977
3.717772 104.9889 68.58025 0.8217016 -4.03668 0.9790169 4.629253 2.281217 3.124886 -0 9.196028 -0 -6.495286 -10.5046 -0.9942599 -1.894233 -17.11587 -6.330939 -0 55.78958 -0 -4.883426 -5.161809 14.71299 -1.970393 -0.9401091 4.742769 2.379334 10.55117 -7.5718 0.6900514 20.86375 7.414384 3.832438 -24.35948 8.294686 5.335425 -17.72898 12.05589 87.38046 35.32797 -19.6089 -0 0 11.98462 -13.05599 10.85728 7.912658 5.754553 -21.11909 -2.127303 -90.63949 22.49323 19.25809 0 0 -18.2591 8.73233 10.50422 3.714869
3.924767 104.9389 73.71805 0.8250818 -4.589855 0.5116715 4.725046 7.026427 3.069984 -0 8.01328 -0 -5.631437 -12.38771 -0.8305656 0.09013285 -22.02043 -4.416671 -0 45.89479 -0 -4.722328 -5.616799 16.6201 -1.966336 -0.8722302 4.690591 2.397556 10.52574 -7.588538 0.663137 20.84122 7.431535 3.843203 -24.31171 8.240549 5.34482 -17.61317 12.05919 87.46965 35.3501 -19.72763 -0 0 11.77956 -13.20089 10.93375 8.107169 5.679812 -21.08608 -2.222311 -90.49336 22.57207 19.13744 0 0 -18.50972 8.418649 10.26474 4.161743
4.258969 104.234 78.92557 0.4228508 -4.694809 -0.02258718 4.99523 10.77731 2.856486 -0 7.75453 -0 -5.194967 -14.63484 -0.5624277 2.016625 -25.34327 -2.86403 -0 34.24105 -0 -4.114478 -5.716918 17.79186 -1.963076 -0.8093572 4.643657 2.412951 10.5047 -7.60445 0.637935 20.82271 7.442545 3.851493 -24.25532 8.181779 5.353114 -17.50388 12.06352 87.54885 35.36077 -19.83545 -0 0 11.58968 -13.35613 11.00946 8.298061 5.606562 -21.05381 -2.314719 -90.35512 22.64553 19.02637 0 0 -18.73293 8.107506 10.04205 4.59799
4.778869 103.1158 84.37407 -0.08830047 -4.399485 -0.6031622 5.032076 13.62364 2.601353 -0 8.574321 -0 -4.836881 -16.41859 -0.1509712 3.234647 -27.00653 -2.042287 -0 23.69915 -0 -3.218144 -5.423896 18.13186 -1.960761 -0.7508931 4.601871 2.425516 10.4878 -7.619127 0.6143558 20.80828 7.447826 3.857516 -24.19066 8.118605 5.36043 -17.40085 12.06886 87.61754 35.36036 -19.93126 -0 0 11.41462 -13.5217 11.08421 8.485994 5.534342 -21.02195 -2.404685 -90.22453 22.71385 18.92444 0 0 -18.92961 7.798236 9.834921 5.024655
5.475572 101.9078 90.22741 -0.4145176 -3.863305 -1.185467 4.549248 15.8776 2.379726 -0 10.50798 -0 -4.4264 -17.09338 0.3427016 3.355056 -27.30754 -2.134568 -0 16.39498 -0 -2.445356 -5.031485 17.97328 -1.959511 -0.6962967 4.565089 2.435316 10.47477 -7.632245 0.5923245 20.79789 7.447783 3.861453 -24.11817 8.051298 5.366874 -17.30384 12.07521 87.67529 35.34927 -20.01417 -0 0 11.25398 -13.69737 11.15778 8.671517 5.462772 -20.99017 -2.492335 -90.10122 22.77718 18.83106 0 0 -19.10091 7.490412 9.642197 5.442514
